<svg preserveAspectRatio="xMidYMid meet" viewBox="106.36363636363636 241.664 376.3636363636364 548.864" xmlns="http://www.w3.org/2000/svg" version="1.0" style="max-height: 500px" width="376.3636363636364" height="548.864">

<g stroke="none" fill="#000000" transform="translate(0.000000,1024.000000) scale(0.100000,-0.100000)">
<path d="M1533 7780 c-17 -10 -37 -28 -43 -40 -6 -12 -48 -128 -92 -258 -44&#10;-130 -84 -245 -89 -254 -7 -13 -22 -18 -55 -18 -55 0 -99 -22 -117 -58 -7 -15&#10;-38 -102 -67 -194 -66 -205 -68 -198 71 -198 l99 0 0 -35 c0 -20 7 -95 15&#10;-168 8 -73 23 -229 35 -347 37 -393 50 -524 65 -665 9 -77 31 -302 50 -500 19&#10;-198 39 -403 45 -455 6 -52 19 -189 30 -305 11 -115 27 -275 35 -355 8 -80 21&#10;-219 30 -310 8 -91 27 -280 40 -420 14 -140 34 -345 45 -455 11 -110 25 -217&#10;30 -237 22 -76 103 -157 179 -178 49 -14 2123 -14 2172 0 51 14 98 48 136 98&#10;50 65 52 77 93 527 11 121 27 283 35 360 8 77 21 211 30 298 8 86 22 226 30&#10;310 8 83 31 314 50 512 38 390 37 381 65 660 11 105 24 240 29 300 10 105 49&#10;502 91 915 11 107 25 252 32 323 l11 127 97 0 c138 0 136 -7 70 198 -29 92&#10;-60 179 -67 194 -18 37 -62 58 -121 58 l-49 0 -21 63 c-57 173 -107 305 -123&#10;328 -10 15 -36 35 -56 45 -36 18 -84 19 -883 25 l-845 6 -95 25 c-52 14 -152&#10;42 -222 62 l-128 36 -302 0 c-282 0 -305 -1 -335 -20z m712 -80 c420 -118 325&#10;-110 1231 -110 816 0 843 -1 864 -40 9 -16 120 -329 120 -337 0 -2 -691 -3&#10;-1535 -3 -844 0 -1535 1 -1535 3 0 19 160 480 172 495 8 9 83 12 312 12 270 0&#10;308 -2 371 -20z m2388 -572 c14 -11 97 -246 97 -277 0 -8 -491 -12 -1805 -13&#10;-1198 -2 -1805 0 -1805 7 0 25 83 262 97 277 15 17 109 18 1708 18 1337 0&#10;1695 -3 1708 -12z m-103 -408 c0 -22 -13 -174 -30 -338 -16 -163 -37 -369 -45&#10;-457 -9 -88 -23 -221 -30 -295 -8 -74 -19 -187 -25 -250 -5 -63 -17 -182 -25&#10;-265 -8 -82 -21 -220 -30 -305 -8 -85 -19 -198 -25 -250 -5 -52 -17 -167 -25&#10;-255 -9 -88 -23 -227 -31 -310 -8 -82 -17 -172 -19 -200 -20 -216 -37 -392&#10;-50 -515 -8 -80 -29 -282 -45 -448 -25 -260 -33 -309 -51 -338 -27 -44 -74&#10;-79 -124 -93 -52 -14 -2054 -15 -2105 -1 -46 13 -103 61 -123 103 -17 35 -32&#10;149 -67 522 -11 121 -25 256 -30 300 -5 44 -12 107 -15 140 -8 100 -33 358&#10;-76 785 -22 223 -44 455 -50 515 -10 117 -59 615 -84 855 -8 80 -24 240 -35&#10;355 -46 480 -70 722 -74 753 l-5 32 1610 0 1609 0 0 -40z"/>
</g>
</svg>